<mxfile host="app.diagrams.net" agent="Mozilla/5.0 (Macintosh; Intel Mac OS X 10_15_7) AppleWebKit/605.1.15 (KHTML, like Gecko) Version/18.4 Safari/605.1.15" version="27.0.5">
  <diagram id="C5RBs43oDa-KdzZeNtuy" name="Page-1">
    <mxGraphModel dx="2165" dy="861" grid="1" gridSize="10" guides="1" tooltips="1" connect="1" arrows="1" fold="1" page="1" pageScale="1" pageWidth="827" pageHeight="1169" math="0" shadow="0">
      <root>
        <mxCell id="WIyWlLk6GJQsqaUBKTNV-0" />
        <mxCell id="WIyWlLk6GJQsqaUBKTNV-1" parent="WIyWlLk6GJQsqaUBKTNV-0" />
        <mxCell id="wZf27ZP8mRITOaO82XLp-6" value="Employee" style="shape=umlLifeline;perimeter=lifelinePerimeter;whiteSpace=wrap;html=1;container=1;dropTarget=0;collapsible=0;recursiveResize=0;outlineConnect=0;portConstraint=eastwest;newEdgeStyle={&quot;curved&quot;:0,&quot;rounded&quot;:0};participant=umlActor;size=40;" parent="WIyWlLk6GJQsqaUBKTNV-1" vertex="1">
          <mxGeometry x="-40" y="40" width="20" height="180" as="geometry" />
        </mxCell>
        <mxCell id="wZf27ZP8mRITOaO82XLp-12" value="frame" style="shape=umlFrame;whiteSpace=wrap;html=1;pointerEvents=0;" parent="WIyWlLk6GJQsqaUBKTNV-1" vertex="1">
          <mxGeometry x="-70" y="5" width="510" height="390" as="geometry" />
        </mxCell>
        <mxCell id="wZf27ZP8mRITOaO82XLp-18" value="2: emp=selectEmployee()" style="html=1;verticalAlign=bottom;endArrow=block;curved=0;rounded=0;" parent="WIyWlLk6GJQsqaUBKTNV-1" target="wZf27ZP8mRITOaO82XLp-30" edge="1">
          <mxGeometry width="80" relative="1" as="geometry">
            <mxPoint x="-30" y="159" as="sourcePoint" />
            <mxPoint x="140" y="159" as="targetPoint" />
          </mxGeometry>
        </mxCell>
        <mxCell id="wZf27ZP8mRITOaO82XLp-20" value="3: onSendTaskButtonClick()" style="html=1;verticalAlign=bottom;endArrow=block;curved=0;rounded=0;" parent="WIyWlLk6GJQsqaUBKTNV-1" target="wZf27ZP8mRITOaO82XLp-31" edge="1">
          <mxGeometry width="80" relative="1" as="geometry">
            <mxPoint x="-30" y="190" as="sourcePoint" />
            <mxPoint x="140.00000000000023" y="190" as="targetPoint" />
          </mxGeometry>
        </mxCell>
        <mxCell id="wZf27ZP8mRITOaO82XLp-22" value="4: sendTask()" style="html=1;verticalAlign=bottom;endArrow=block;curved=0;rounded=0;" parent="WIyWlLk6GJQsqaUBKTNV-1" source="wZf27ZP8mRITOaO82XLp-31" target="wZf27ZP8mRITOaO82XLp-23" edge="1">
          <mxGeometry width="80" relative="1" as="geometry">
            <mxPoint x="150" y="200" as="sourcePoint" />
            <mxPoint x="220" y="210" as="targetPoint" />
          </mxGeometry>
        </mxCell>
        <mxCell id="wZf27ZP8mRITOaO82XLp-24" value=":CeoWindow" style="shape=umlLifeline;perimeter=lifelinePerimeter;whiteSpace=wrap;html=1;container=1;dropTarget=0;collapsible=0;recursiveResize=0;outlineConnect=0;portConstraint=eastwest;newEdgeStyle={&quot;curved&quot;:0,&quot;rounded&quot;:0};" parent="WIyWlLk6GJQsqaUBKTNV-1" vertex="1">
          <mxGeometry x="60" y="50" width="100" height="300" as="geometry" />
        </mxCell>
        <mxCell id="wZf27ZP8mRITOaO82XLp-29" value="" style="html=1;points=[[0,0,0,0,5],[0,1,0,0,-5],[1,0,0,0,5],[1,1,0,0,-5]];perimeter=orthogonalPerimeter;outlineConnect=0;targetShapes=umlLifeline;portConstraint=eastwest;newEdgeStyle={&quot;curved&quot;:0,&quot;rounded&quot;:0};" parent="wZf27ZP8mRITOaO82XLp-24" vertex="1">
          <mxGeometry x="45" y="80" width="10" height="20" as="geometry" />
        </mxCell>
        <mxCell id="wZf27ZP8mRITOaO82XLp-27" value="1: task=selectTask()" style="html=1;verticalAlign=bottom;endArrow=block;curved=0;rounded=0;" parent="wZf27ZP8mRITOaO82XLp-24" source="wZf27ZP8mRITOaO82XLp-29" target="wZf27ZP8mRITOaO82XLp-24" edge="1">
          <mxGeometry y="81" width="80" relative="1" as="geometry">
            <mxPoint x="-120" y="90" as="sourcePoint" />
            <mxPoint x="-40" y="90" as="targetPoint" />
            <mxPoint x="-80" y="-10" as="offset" />
          </mxGeometry>
        </mxCell>
        <mxCell id="wZf27ZP8mRITOaO82XLp-30" value="" style="html=1;points=[[0,0,0,0,5],[0,1,0,0,-5],[1,0,0,0,5],[1,1,0,0,-5]];perimeter=orthogonalPerimeter;outlineConnect=0;targetShapes=umlLifeline;portConstraint=eastwest;newEdgeStyle={&quot;curved&quot;:0,&quot;rounded&quot;:0};" parent="wZf27ZP8mRITOaO82XLp-24" vertex="1">
          <mxGeometry x="45" y="110" width="10" height="20" as="geometry" />
        </mxCell>
        <mxCell id="wZf27ZP8mRITOaO82XLp-31" value="" style="html=1;points=[[0,0,0,0,5],[0,1,0,0,-5],[1,0,0,0,5],[1,1,0,0,-5]];perimeter=orthogonalPerimeter;outlineConnect=0;targetShapes=umlLifeline;portConstraint=eastwest;newEdgeStyle={&quot;curved&quot;:0,&quot;rounded&quot;:0};" parent="wZf27ZP8mRITOaO82XLp-24" vertex="1">
          <mxGeometry x="45" y="140" width="10" height="30" as="geometry" />
        </mxCell>
        <mxCell id="wZf27ZP8mRITOaO82XLp-28" value="" style="html=1;verticalAlign=bottom;endArrow=block;curved=0;rounded=0;" parent="WIyWlLk6GJQsqaUBKTNV-1" target="wZf27ZP8mRITOaO82XLp-29" edge="1">
          <mxGeometry width="80" relative="1" as="geometry">
            <mxPoint x="-30" y="130" as="sourcePoint" />
            <mxPoint x="140" y="130" as="targetPoint" />
          </mxGeometry>
        </mxCell>
        <mxCell id="wZf27ZP8mRITOaO82XLp-32" value=":CeoControl" style="shape=umlLifeline;perimeter=lifelinePerimeter;whiteSpace=wrap;html=1;container=1;dropTarget=0;collapsible=0;recursiveResize=0;outlineConnect=0;portConstraint=eastwest;newEdgeStyle={&quot;curved&quot;:0,&quot;rounded&quot;:0};" parent="WIyWlLk6GJQsqaUBKTNV-1" vertex="1">
          <mxGeometry x="180" y="50" width="100" height="300" as="geometry" />
        </mxCell>
        <mxCell id="wZf27ZP8mRITOaO82XLp-23" value="" style="html=1;points=[[0,0,0,0,5],[0,1,0,0,-5],[1,0,0,0,5],[1,1,0,0,-5]];perimeter=orthogonalPerimeter;outlineConnect=0;targetShapes=umlLifeline;portConstraint=eastwest;newEdgeStyle={&quot;curved&quot;:0,&quot;rounded&quot;:0};" parent="wZf27ZP8mRITOaO82XLp-32" vertex="1">
          <mxGeometry x="45" y="140" width="10" height="40" as="geometry" />
        </mxCell>
        <mxCell id="wZf27ZP8mRITOaO82XLp-35" value=":EmployeeService" style="shape=umlLifeline;whiteSpace=wrap;html=1;container=1;dropTarget=0;collapsible=0;recursiveResize=0;outlineConnect=0;portConstraint=eastwest;newEdgeStyle={&quot;curved&quot;:0,&quot;rounded&quot;:0};points=[[0,0,0,0,5],[0,1,0,0,-5],[1,0,0,0,5],[1,1,0,0,-5]];perimeter=rectanglePerimeter;targetShapes=umlLifeline;participant=label;" parent="WIyWlLk6GJQsqaUBKTNV-1" vertex="1">
          <mxGeometry x="310" y="50" width="100" height="300" as="geometry" />
        </mxCell>
        <mxCell id="wZf27ZP8mRITOaO82XLp-37" value="" style="html=1;points=[[0,0,0,0,5],[0,1,0,0,-5],[1,0,0,0,5],[1,1,0,0,-5]];perimeter=orthogonalPerimeter;outlineConnect=0;targetShapes=umlLifeline;portConstraint=eastwest;newEdgeStyle={&quot;curved&quot;:0,&quot;rounded&quot;:0};" parent="wZf27ZP8mRITOaO82XLp-35" vertex="1">
          <mxGeometry x="45" y="140" width="10" height="40" as="geometry" />
        </mxCell>
        <mxCell id="wZf27ZP8mRITOaO82XLp-38" value="5: sendTask(emp, task)" style="html=1;verticalAlign=bottom;endArrow=block;curved=0;rounded=0;" parent="WIyWlLk6GJQsqaUBKTNV-1" source="wZf27ZP8mRITOaO82XLp-23" target="wZf27ZP8mRITOaO82XLp-37" edge="1">
          <mxGeometry width="80" relative="1" as="geometry">
            <mxPoint x="250.00000000000023" y="219.66" as="sourcePoint" />
            <mxPoint x="340" y="220" as="targetPoint" />
            <Array as="points">
              <mxPoint x="300" y="210" />
            </Array>
          </mxGeometry>
        </mxCell>
        <mxCell id="S9dLjvkBJGlYiL_u9B-5-0" value="frame" style="shape=umlFrame;whiteSpace=wrap;html=1;pointerEvents=0;" vertex="1" parent="WIyWlLk6GJQsqaUBKTNV-1">
          <mxGeometry x="-70" y="450" width="510" height="390" as="geometry" />
        </mxCell>
        <mxCell id="S9dLjvkBJGlYiL_u9B-5-1" value="Employee&lt;div&gt;&lt;br&gt;&lt;/div&gt;" style="shape=umlActor;verticalLabelPosition=bottom;verticalAlign=top;html=1;" vertex="1" parent="WIyWlLk6GJQsqaUBKTNV-1">
          <mxGeometry x="-20" y="490" width="30" height="60" as="geometry" />
        </mxCell>
        <mxCell id="S9dLjvkBJGlYiL_u9B-5-10" style="edgeStyle=orthogonalEdgeStyle;rounded=0;orthogonalLoop=1;jettySize=auto;html=1;entryX=0.5;entryY=0;entryDx=0;entryDy=0;" edge="1" parent="WIyWlLk6GJQsqaUBKTNV-1" source="S9dLjvkBJGlYiL_u9B-5-2" target="S9dLjvkBJGlYiL_u9B-5-9">
          <mxGeometry relative="1" as="geometry" />
        </mxCell>
        <mxCell id="S9dLjvkBJGlYiL_u9B-5-2" value="CEOWindow" style="html=1;whiteSpace=wrap;" vertex="1" parent="WIyWlLk6GJQsqaUBKTNV-1">
          <mxGeometry x="150" y="500" width="110" height="50" as="geometry" />
        </mxCell>
        <mxCell id="S9dLjvkBJGlYiL_u9B-5-3" style="edgeStyle=orthogonalEdgeStyle;rounded=0;orthogonalLoop=1;jettySize=auto;html=1;entryX=-0.023;entryY=0.4;entryDx=0;entryDy=0;entryPerimeter=0;" edge="1" parent="WIyWlLk6GJQsqaUBKTNV-1" source="S9dLjvkBJGlYiL_u9B-5-1" target="S9dLjvkBJGlYiL_u9B-5-2">
          <mxGeometry relative="1" as="geometry" />
        </mxCell>
        <mxCell id="S9dLjvkBJGlYiL_u9B-5-4" style="edgeStyle=orthogonalEdgeStyle;rounded=0;orthogonalLoop=1;jettySize=auto;html=1;entryX=-0.023;entryY=0.4;entryDx=0;entryDy=0;entryPerimeter=0;" edge="1" parent="WIyWlLk6GJQsqaUBKTNV-1">
          <mxGeometry relative="1" as="geometry">
            <mxPoint x="10" y="530" as="sourcePoint" />
            <mxPoint x="147" y="530" as="targetPoint" />
          </mxGeometry>
        </mxCell>
        <mxCell id="S9dLjvkBJGlYiL_u9B-5-5" style="edgeStyle=orthogonalEdgeStyle;rounded=0;orthogonalLoop=1;jettySize=auto;html=1;entryX=-0.023;entryY=0.4;entryDx=0;entryDy=0;entryPerimeter=0;" edge="1" parent="WIyWlLk6GJQsqaUBKTNV-1">
          <mxGeometry relative="1" as="geometry">
            <mxPoint x="10" y="510" as="sourcePoint" />
            <mxPoint x="147" y="510" as="targetPoint" />
          </mxGeometry>
        </mxCell>
        <mxCell id="S9dLjvkBJGlYiL_u9B-5-6" value="&lt;span style=&quot;caret-color: rgb(255, 255, 255); color: rgb(255, 255, 255); font-family: Helvetica; font-size: 11px; font-style: normal; font-variant-caps: normal; font-weight: 400; letter-spacing: normal; orphans: auto; text-align: center; text-indent: 0px; text-transform: none; white-space: nowrap; widows: auto; word-spacing: 0px; -webkit-text-stroke-width: 0px; background-color: rgb(18, 18, 18); text-decoration: none; display: inline !important; float: none;&quot;&gt;1: task=selectTask()&lt;/span&gt;" style="text;whiteSpace=wrap;html=1;" vertex="1" parent="WIyWlLk6GJQsqaUBKTNV-1">
          <mxGeometry x="30" y="530" width="110" height="30" as="geometry" />
        </mxCell>
        <mxCell id="S9dLjvkBJGlYiL_u9B-5-7" value="&lt;span style=&quot;caret-color: rgb(255, 255, 255); color: rgb(255, 255, 255); font-family: Helvetica; font-size: 11px; font-style: normal; font-variant-caps: normal; font-weight: 400; letter-spacing: normal; orphans: auto; text-align: center; text-indent: 0px; text-transform: none; white-space: nowrap; widows: auto; word-spacing: 0px; -webkit-text-stroke-width: 0px; background-color: rgb(18, 18, 18); text-decoration: none; display: inline !important; float: none;&quot;&gt;2: emp=selectEmployee()&lt;/span&gt;" style="text;whiteSpace=wrap;html=1;" vertex="1" parent="WIyWlLk6GJQsqaUBKTNV-1">
          <mxGeometry x="30" y="550" width="160" height="40" as="geometry" />
        </mxCell>
        <mxCell id="S9dLjvkBJGlYiL_u9B-5-8" value="&lt;span style=&quot;caret-color: rgb(255, 255, 255); color: rgb(255, 255, 255); font-family: Helvetica; font-size: 11px; font-style: normal; font-variant-caps: normal; font-weight: 400; letter-spacing: normal; orphans: auto; text-align: center; text-indent: 0px; text-transform: none; white-space: nowrap; widows: auto; word-spacing: 0px; -webkit-text-stroke-width: 0px; background-color: rgb(18, 18, 18); text-decoration: none; display: inline !important; float: none;&quot;&gt;3: onSendTaskButtonClick()&lt;/span&gt;" style="text;whiteSpace=wrap;html=1;" vertex="1" parent="WIyWlLk6GJQsqaUBKTNV-1">
          <mxGeometry x="30" y="570" width="170" height="40" as="geometry" />
        </mxCell>
        <mxCell id="S9dLjvkBJGlYiL_u9B-5-14" style="edgeStyle=orthogonalEdgeStyle;rounded=0;orthogonalLoop=1;jettySize=auto;html=1;entryX=1;entryY=0.5;entryDx=0;entryDy=0;exitX=0.5;exitY=1;exitDx=0;exitDy=0;" edge="1" parent="WIyWlLk6GJQsqaUBKTNV-1" source="S9dLjvkBJGlYiL_u9B-5-9" target="S9dLjvkBJGlYiL_u9B-5-12">
          <mxGeometry relative="1" as="geometry">
            <mxPoint x="370" y="700" as="sourcePoint" />
            <mxPoint x="280" y="770" as="targetPoint" />
          </mxGeometry>
        </mxCell>
        <mxCell id="S9dLjvkBJGlYiL_u9B-5-9" value="CEOControl" style="html=1;whiteSpace=wrap;" vertex="1" parent="WIyWlLk6GJQsqaUBKTNV-1">
          <mxGeometry x="300" y="610" width="110" height="50" as="geometry" />
        </mxCell>
        <mxCell id="S9dLjvkBJGlYiL_u9B-5-11" value="&lt;span style=&quot;caret-color: rgb(255, 255, 255); color: rgb(255, 255, 255); font-family: Helvetica; font-size: 11px; font-style: normal; font-variant-caps: normal; font-weight: 400; letter-spacing: normal; orphans: auto; text-align: center; text-indent: 0px; text-transform: none; white-space: nowrap; widows: auto; word-spacing: 0px; -webkit-text-stroke-width: 0px; background-color: rgb(18, 18, 18); text-decoration: none; display: inline !important; float: none;&quot;&gt;4: sendTask()&lt;/span&gt;" style="text;whiteSpace=wrap;html=1;" vertex="1" parent="WIyWlLk6GJQsqaUBKTNV-1">
          <mxGeometry x="280" y="500" width="100" height="40" as="geometry" />
        </mxCell>
        <mxCell id="S9dLjvkBJGlYiL_u9B-5-12" value="EmployeeService" style="html=1;whiteSpace=wrap;" vertex="1" parent="WIyWlLk6GJQsqaUBKTNV-1">
          <mxGeometry x="100" y="680" width="110" height="50" as="geometry" />
        </mxCell>
        <mxCell id="S9dLjvkBJGlYiL_u9B-5-15" value="&lt;span style=&quot;caret-color: rgb(255, 255, 255); color: rgb(255, 255, 255); font-family: Helvetica; font-size: 11px; font-style: normal; font-variant-caps: normal; font-weight: 400; letter-spacing: normal; orphans: auto; text-align: center; text-indent: 0px; text-transform: none; white-space: nowrap; widows: auto; word-spacing: 0px; -webkit-text-stroke-width: 0px; background-color: rgb(18, 18, 18); text-decoration: none; display: inline !important; float: none;&quot;&gt;5: sendTask(emp, task)&lt;/span&gt;" style="text;whiteSpace=wrap;html=1;" vertex="1" parent="WIyWlLk6GJQsqaUBKTNV-1">
          <mxGeometry x="230" y="710" width="150" height="40" as="geometry" />
        </mxCell>
      </root>
    </mxGraphModel>
  </diagram>
</mxfile>
